<mxfile host="Electron" agent="Mozilla/5.0 (Windows NT 10.0; Win64; x64) AppleWebKit/537.36 (KHTML, like Gecko) draw.io/24.7.17 Chrome/128.0.6613.36 Electron/32.0.1 Safari/537.36" version="24.7.17">
  <diagram name="Page-1" id="2ca16b54-16f6-2749-3443-fa8db7711227">
    <mxGraphModel dx="1219" dy="713" grid="1" gridSize="10" guides="1" tooltips="1" connect="1" arrows="1" fold="1" page="1" pageScale="1" pageWidth="1100" pageHeight="850" background="none" math="0" shadow="0">
      <root>
        <mxCell id="0" />
        <mxCell id="1" parent="0" />
        <mxCell id="iZUvOMByy25hBOV0dMiL-5" value="&lt;b&gt;&lt;font style=&quot;font-size: 18px;&quot; color=&quot;#ffffff&quot;&gt;STRIPE NOSQL&lt;/font&gt;&lt;/b&gt;" style="whiteSpace=wrap;html=1;strokeColor=#D0CEE2;fontColor=#1A1A1A;fillColor=#5D7F99;" parent="1" vertex="1">
          <mxGeometry x="80" y="30" width="1540" height="30" as="geometry" />
        </mxCell>
        <mxCell id="iZUvOMByy25hBOV0dMiL-11" value="&lt;div style=&quot;box-sizing:border-box;width:100%;background:#e4e4e4;padding:2px;&quot;&gt;&lt;b&gt;Customer_feedback&lt;/b&gt;&lt;/div&gt;&lt;table style=&quot;width:100%;font-size:1em;&quot; cellpadding=&quot;2&quot; cellspacing=&quot;0&quot;&gt;&lt;tbody&gt;&lt;tr&gt;&lt;td&gt;PK&lt;/td&gt;&lt;td&gt;customer_id&lt;/td&gt;&lt;td&gt;string&lt;/td&gt;&lt;/tr&gt;&lt;tr&gt;&lt;td&gt;FK&lt;/td&gt;&lt;td&gt;user_id&lt;/td&gt;&lt;td&gt;string&lt;/td&gt;&lt;/tr&gt;&lt;tr&gt;&lt;td&gt;FK&lt;/td&gt;&lt;td&gt;transaction_id&lt;/td&gt;&lt;td&gt;string&lt;/td&gt;&lt;/tr&gt;&lt;tr&gt;&lt;td&gt;FK&lt;/td&gt;&lt;td&gt;product_id&lt;/td&gt;&lt;td&gt;string&lt;/td&gt;&lt;/tr&gt;&lt;tr&gt;&lt;td&gt;&lt;br&gt;&lt;/td&gt;&lt;td&gt;rating&lt;/td&gt;&lt;td&gt;integer&lt;/td&gt;&lt;/tr&gt;&lt;tr&gt;&lt;td&gt;&lt;br&gt;&lt;/td&gt;&lt;td&gt;review&lt;/td&gt;&lt;td&gt;string&lt;/td&gt;&lt;/tr&gt;&lt;/tbody&gt;&lt;/table&gt;" style="verticalAlign=top;align=left;overflow=fill;html=1;rounded=1;shadow=0;comic=0;labelBackgroundColor=none;strokeWidth=1;fontFamily=Verdana;fontSize=12;fillColor=#5D7F99;strokeColor=#D0CEE2;fontColor=#1A1A1A;" parent="1" vertex="1">
          <mxGeometry x="770" y="778.75" width="180" height="130" as="geometry" />
        </mxCell>
        <mxCell id="ibxi2bQA84ckX80V5osr-31" value="" style="edgeStyle=orthogonalEdgeStyle;rounded=0;orthogonalLoop=1;jettySize=auto;html=1;entryX=0.5;entryY=1;entryDx=0;entryDy=0;" parent="1" target="iZUvOMByy25hBOV0dMiL-13" edge="1">
          <mxGeometry relative="1" as="geometry">
            <mxPoint x="1270" y="439" as="sourcePoint" />
            <mxPoint x="1280" y="330" as="targetPoint" />
          </mxGeometry>
        </mxCell>
        <mxCell id="iZUvOMByy25hBOV0dMiL-12" value="&lt;div style=&quot;box-sizing:border-box;width:100%;background:#e4e4e4;padding:2px;&quot;&gt;&lt;b&gt;Error_logs&lt;/b&gt;&lt;/div&gt;&lt;table style=&quot;width:100%;font-size:1em;&quot; cellpadding=&quot;2&quot; cellspacing=&quot;0&quot;&gt;&lt;tbody&gt;&lt;tr&gt;&lt;td&gt;PK&lt;/td&gt;&lt;td&gt;log_id&lt;/td&gt;&lt;td&gt;string&lt;br&gt;&lt;/td&gt;&lt;/tr&gt;&lt;tr&gt;&lt;td&gt;FK&lt;/td&gt;&lt;td&gt;transaction_id&lt;/td&gt;&lt;td&gt;string&lt;/td&gt;&lt;/tr&gt;&lt;tr&gt;&lt;td&gt;FK&lt;/td&gt;&lt;td&gt;user_id&lt;/td&gt;&lt;td&gt;string&lt;/td&gt;&lt;/tr&gt;&lt;tr&gt;&lt;td&gt;FK&lt;/td&gt;&lt;td&gt;merchant_id&lt;/td&gt;&lt;td&gt;string&lt;/td&gt;&lt;/tr&gt;&lt;tr&gt;&lt;td&gt;&lt;br&gt;&lt;/td&gt;&lt;td&gt;timestamp&lt;/td&gt;&lt;td&gt;isodate&lt;/td&gt;&lt;/tr&gt;&lt;tr&gt;&lt;td&gt;&lt;/td&gt;&lt;td&gt;severity&lt;/td&gt;&lt;td&gt;string&lt;br&gt;&lt;/td&gt;&lt;/tr&gt;&lt;tr&gt;&lt;td&gt;&lt;br&gt;&lt;/td&gt;&lt;td&gt;message&lt;/td&gt;&lt;td&gt;float&lt;/td&gt;&lt;/tr&gt;&lt;tr&gt;&lt;td&gt;&lt;br&gt;&lt;/td&gt;&lt;td&gt;error_code&lt;/td&gt;&lt;td&gt;string&lt;/td&gt;&lt;/tr&gt;&lt;tr&gt;&lt;td&gt;&lt;br&gt;&lt;/td&gt;&lt;td&gt;device&lt;/td&gt;&lt;td&gt;string&lt;/td&gt;&lt;/tr&gt;&lt;tr&gt;&lt;td&gt;&lt;br&gt;&lt;/td&gt;&lt;td&gt;&lt;br&gt;&lt;/td&gt;&lt;td&gt;&lt;br&gt;&lt;/td&gt;&lt;/tr&gt;&lt;/tbody&gt;&lt;/table&gt;" style="verticalAlign=top;align=left;overflow=fill;html=1;rounded=1;shadow=0;comic=0;labelBackgroundColor=none;strokeWidth=1;fontFamily=Verdana;fontSize=12;fillColor=#5D7F99;strokeColor=#D0CEE2;fontColor=#1A1A1A;" parent="1" vertex="1">
          <mxGeometry x="1160" y="440" width="240" height="200" as="geometry" />
        </mxCell>
        <mxCell id="iZUvOMByy25hBOV0dMiL-13" value="&lt;div style=&quot;box-sizing:border-box;width:100%;background:#e4e4e4;padding:2px;&quot;&gt;&lt;b&gt;Machine_learning_features&lt;/b&gt;&lt;/div&gt;&lt;table style=&quot;width:100%;font-size:1em;&quot; cellpadding=&quot;2&quot; cellspacing=&quot;0&quot;&gt;&lt;tbody&gt;&lt;tr&gt;&lt;td&gt;PK&lt;/td&gt;&lt;td&gt;model_id&lt;br&gt;&lt;/td&gt;&lt;td&gt;string&lt;br&gt;&lt;/td&gt;&lt;/tr&gt;&lt;tr&gt;&lt;td&gt;FK&lt;/td&gt;&lt;td&gt;transaction_id&lt;/td&gt;&lt;td&gt;string&lt;/td&gt;&lt;/tr&gt;&lt;tr&gt;&lt;td&gt;FK&lt;/td&gt;&lt;td&gt;merchant_id&lt;/td&gt;&lt;td&gt;string&lt;/td&gt;&lt;/tr&gt;&lt;tr&gt;&lt;td&gt;FK&lt;/td&gt;&lt;td&gt;user_id&lt;/td&gt;&lt;td&gt;string&lt;br&gt;&lt;/td&gt;&lt;/tr&gt;&lt;tr&gt;&lt;td&gt;FK&lt;/td&gt;&lt;td&gt;log_id&lt;/td&gt;&lt;td&gt;boolean&lt;/td&gt;&lt;/tr&gt;&lt;tr&gt;&lt;td&gt;&lt;br&gt;&lt;/td&gt;&lt;td&gt;session_id&lt;/td&gt;&lt;td&gt;string&lt;/td&gt;&lt;/tr&gt;&lt;tr&gt;&lt;td&gt;&lt;br&gt;&lt;/td&gt;&lt;td&gt;fraud_score&lt;/td&gt;&lt;td&gt;decimal&lt;/td&gt;&lt;/tr&gt;&lt;tr&gt;&lt;td&gt;&lt;br&gt;&lt;/td&gt;&lt;td&gt;model_score&lt;/td&gt;&lt;td&gt;decimal&lt;/td&gt;&lt;/tr&gt;&lt;tr&gt;&lt;td&gt;&lt;br&gt;&lt;/td&gt;&lt;td&gt;session_duration&lt;/td&gt;&lt;td&gt;int&lt;/td&gt;&lt;/tr&gt;&lt;/tbody&gt;&lt;/table&gt;" style="verticalAlign=top;align=left;overflow=fill;html=1;rounded=1;shadow=0;comic=0;labelBackgroundColor=none;strokeWidth=1;fontFamily=Verdana;fontSize=12;fillColor=#5D7F99;strokeColor=#D0CEE2;fontColor=#1A1A1A;" parent="1" vertex="1">
          <mxGeometry x="1160" y="120" width="220" height="200" as="geometry" />
        </mxCell>
        <mxCell id="ibxi2bQA84ckX80V5osr-16" value="" style="edgeStyle=orthogonalEdgeStyle;rounded=0;orthogonalLoop=1;jettySize=auto;html=1;exitX=0;exitY=0.5;exitDx=0;exitDy=0;entryX=0.992;entryY=0.588;entryDx=0;entryDy=0;entryPerimeter=0;" parent="1" source="iZUvOMByy25hBOV0dMiL-11" target="iZUvOMByy25hBOV0dMiL-14" edge="1">
          <mxGeometry relative="1" as="geometry">
            <mxPoint x="640" y="844" as="sourcePoint" />
            <Array as="points">
              <mxPoint x="628" y="844" />
              <mxPoint x="628" y="910" />
              <mxPoint x="630" y="910" />
              <mxPoint x="630" y="844" />
            </Array>
            <mxPoint x="650" y="850" as="targetPoint" />
          </mxGeometry>
        </mxCell>
        <mxCell id="ibxi2bQA84ckX80V5osr-33" style="edgeStyle=orthogonalEdgeStyle;rounded=0;orthogonalLoop=1;jettySize=auto;html=1;entryX=0.5;entryY=0;entryDx=0;entryDy=0;exitX=0.5;exitY=1;exitDx=0;exitDy=0;" parent="1" source="iZUvOMByy25hBOV0dMiL-15" target="iZUvOMByy25hBOV0dMiL-14" edge="1">
          <mxGeometry relative="1" as="geometry">
            <Array as="points">
              <mxPoint x="500" y="580" />
            </Array>
            <mxPoint x="520" y="590" as="sourcePoint" />
          </mxGeometry>
        </mxCell>
        <mxCell id="iZUvOMByy25hBOV0dMiL-14" value="&lt;div style=&quot;box-sizing:border-box;width:100%;background:#e4e4e4;padding:2px;&quot;&gt;&lt;b&gt;Product&lt;/b&gt;&lt;/div&gt;&lt;table style=&quot;width:100%;font-size:1em;&quot; cellpadding=&quot;2&quot; cellspacing=&quot;0&quot;&gt;&lt;tbody&gt;&lt;tr&gt;&lt;td&gt;PK&lt;/td&gt;&lt;td&gt;product_id&lt;br&gt;&lt;/td&gt;&lt;td&gt;string&lt;br&gt;&lt;/td&gt;&lt;/tr&gt;&lt;tr&gt;&lt;td&gt;FK&lt;/td&gt;&lt;td&gt;transaction_id&lt;/td&gt;&lt;td&gt;string&lt;/td&gt;&lt;/tr&gt;&lt;tr&gt;&lt;td&gt;FK&lt;/td&gt;&lt;td&gt;customer_id&lt;/td&gt;&lt;td&gt;string&lt;/td&gt;&lt;/tr&gt;&lt;tr&gt;&lt;td&gt;FK&lt;/td&gt;&lt;td&gt;currency_code&lt;/td&gt;&lt;td&gt;string&lt;/td&gt;&lt;/tr&gt;&lt;tr&gt;&lt;td&gt;&lt;br&gt;&lt;/td&gt;&lt;td&gt;product_name&lt;/td&gt;&lt;td&gt;string&lt;br&gt;&lt;/td&gt;&lt;/tr&gt;&lt;tr&gt;&lt;td&gt;&lt;br&gt;&lt;/td&gt;&lt;td&gt;category&lt;/td&gt;&lt;td&gt;string&lt;/td&gt;&lt;/tr&gt;&lt;tr&gt;&lt;td&gt;&lt;br&gt;&lt;/td&gt;&lt;td&gt;price&lt;/td&gt;&lt;td&gt;decimal&lt;/td&gt;&lt;/tr&gt;&lt;/tbody&gt;&lt;/table&gt;" style="verticalAlign=top;align=left;overflow=fill;html=1;rounded=1;shadow=0;comic=0;labelBackgroundColor=none;strokeWidth=1;fontFamily=Verdana;fontSize=12;fillColor=#5D7F99;strokeColor=#D0CEE2;fontColor=#1A1A1A;arcSize=4;" parent="1" vertex="1">
          <mxGeometry x="370" y="763.75" width="260" height="136.25" as="geometry" />
        </mxCell>
        <mxCell id="iZUvOMByy25hBOV0dMiL-15" value="&lt;div style=&quot;box-sizing:border-box;width:100%;background:#e4e4e4;padding:2px;&quot;&gt;&lt;b&gt;Currency_exchange_rates&lt;/b&gt;&lt;/div&gt;&lt;table style=&quot;width:100%;font-size:1em;&quot; cellpadding=&quot;2&quot; cellspacing=&quot;0&quot;&gt;&lt;tbody&gt;&lt;tr&gt;&lt;td&gt;PK&lt;/td&gt;&lt;td&gt;currency_code&lt;/td&gt;&lt;td&gt;string&lt;br&gt;&lt;/td&gt;&lt;/tr&gt;&lt;tr&gt;&lt;td&gt;&lt;br&gt;&lt;/td&gt;&lt;td&gt;transaction_id&lt;/td&gt;&lt;td&gt;string&lt;/td&gt;&lt;/tr&gt;&lt;tr&gt;&lt;td&gt;&lt;/td&gt;&lt;td&gt;country_code&lt;/td&gt;&lt;td&gt;string&lt;br&gt;&lt;/td&gt;&lt;/tr&gt;&lt;tr&gt;&lt;td&gt;&lt;br&gt;&lt;/td&gt;&lt;td&gt;product_id&lt;/td&gt;&lt;td&gt;string&lt;br&gt;&lt;/td&gt;&lt;/tr&gt;&lt;tr&gt;&lt;td&gt;&lt;br&gt;&lt;/td&gt;&lt;td&gt;currency_name&lt;/td&gt;&lt;td&gt;string&lt;/td&gt;&lt;/tr&gt;&lt;tr&gt;&lt;td&gt;&lt;br&gt;&lt;/td&gt;&lt;td&gt;currency_rate&lt;/td&gt;&lt;td&gt;decimal&lt;/td&gt;&lt;/tr&gt;&lt;/tbody&gt;&lt;/table&gt;" style="verticalAlign=top;align=left;overflow=fill;html=1;rounded=1;shadow=0;comic=0;labelBackgroundColor=none;strokeWidth=1;fontFamily=Verdana;fontSize=12;fillColor=#5D7F99;strokeColor=#D0CEE2;fontColor=#1A1A1A;" parent="1" vertex="1">
          <mxGeometry x="380" y="440" width="250" height="140" as="geometry" />
        </mxCell>
        <mxCell id="ibxi2bQA84ckX80V5osr-40" style="edgeStyle=orthogonalEdgeStyle;rounded=0;orthogonalLoop=1;jettySize=auto;html=1;" parent="1" edge="1">
          <mxGeometry relative="1" as="geometry">
            <mxPoint x="1380" y="240" as="targetPoint" />
            <mxPoint x="1370" y="810" as="sourcePoint" />
            <Array as="points">
              <mxPoint x="1490" y="810" />
              <mxPoint x="1490" y="240" />
              <mxPoint x="1380" y="240" />
            </Array>
          </mxGeometry>
        </mxCell>
        <mxCell id="iZUvOMByy25hBOV0dMiL-16" value="&lt;div style=&quot;box-sizing:border-box;width:100%;background:#e4e4e4;padding:2px;&quot;&gt;&lt;b&gt;User_interaction&lt;/b&gt;&lt;/div&gt;&lt;table style=&quot;width:100%;font-size:1em;&quot; cellpadding=&quot;2&quot; cellspacing=&quot;0&quot;&gt;&lt;tbody&gt;&lt;tr&gt;&lt;td&gt;PK&lt;/td&gt;&lt;td&gt;user_id&lt;/td&gt;&lt;td&gt;string&lt;br&gt;&lt;/td&gt;&lt;/tr&gt;&lt;tr&gt;&lt;td&gt;FK&lt;/td&gt;&lt;td&gt;transaction_id&lt;/td&gt;&lt;td&gt;string&lt;/td&gt;&lt;/tr&gt;&lt;tr&gt;&lt;td&gt;FK&lt;/td&gt;&lt;td&gt;customer_id&lt;/td&gt;&lt;td&gt;string&lt;/td&gt;&lt;/tr&gt;&lt;tr&gt;&lt;td&gt;FK&lt;/td&gt;&lt;td&gt;log_id&lt;/td&gt;&lt;td&gt;string&lt;/td&gt;&lt;/tr&gt;&lt;tr&gt;&lt;td&gt;FK&lt;/td&gt;&lt;td&gt;model_id&lt;/td&gt;&lt;td&gt;string&lt;/td&gt;&lt;/tr&gt;&lt;tr&gt;&lt;td&gt;&lt;br&gt;&lt;/td&gt;&lt;td&gt;time&lt;/td&gt;&lt;td&gt;ISOdate&lt;/td&gt;&lt;/tr&gt;&lt;tr&gt;&lt;td&gt;&lt;br&gt;&lt;/td&gt;&lt;td&gt;page&lt;/td&gt;&lt;td&gt;integer&lt;/td&gt;&lt;/tr&gt;&lt;tr&gt;&lt;td&gt;&lt;br&gt;&lt;/td&gt;&lt;td&gt;action&lt;/td&gt;&lt;td&gt;string&lt;/td&gt;&lt;/tr&gt;&lt;tr&gt;&lt;td&gt;&lt;br&gt;&lt;/td&gt;&lt;td&gt;&lt;br&gt;&lt;/td&gt;&lt;td&gt;&lt;br&gt;&lt;/td&gt;&lt;/tr&gt;&lt;/tbody&gt;&lt;/table&gt;" style="verticalAlign=top;align=left;overflow=fill;html=1;rounded=1;shadow=0;comic=0;labelBackgroundColor=none;strokeWidth=1;fontFamily=Verdana;fontSize=12;fillColor=#5D7F99;strokeColor=#D0CEE2;fontColor=#1A1A1A;" parent="1" vertex="1">
          <mxGeometry x="1190" y="757.5" width="190" height="172.5" as="geometry" />
        </mxCell>
        <mxCell id="iZUvOMByy25hBOV0dMiL-17" value="&lt;div style=&quot;box-sizing:border-box;width:100%;background:#e4e4e4;padding:2px;&quot;&gt;&lt;b&gt;Merchant&lt;/b&gt;&lt;/div&gt;&lt;table style=&quot;width:100%;font-size:1em;&quot; cellpadding=&quot;2&quot; cellspacing=&quot;0&quot;&gt;&lt;tbody&gt;&lt;tr&gt;&lt;td&gt;PK&lt;/td&gt;&lt;td&gt;merchant_id&lt;br&gt;&lt;/td&gt;&lt;td&gt;string&lt;br&gt;&lt;/td&gt;&lt;/tr&gt;&lt;tr&gt;&lt;td&gt;FK&lt;/td&gt;&lt;td&gt;country_code&lt;/td&gt;&lt;td&gt;string&lt;/td&gt;&lt;/tr&gt;&lt;tr&gt;&lt;td&gt;FK&lt;/td&gt;&lt;td&gt;transaction_id&lt;/td&gt;&lt;td&gt;string&lt;/td&gt;&lt;/tr&gt;&lt;tr&gt;&lt;td&gt;FK&lt;/td&gt;&lt;td&gt;model_id&lt;/td&gt;&lt;td&gt;string&lt;/td&gt;&lt;/tr&gt;&lt;tr&gt;&lt;td&gt;FK&lt;/td&gt;&lt;td&gt;log_id&lt;/td&gt;&lt;td&gt;string&lt;/td&gt;&lt;/tr&gt;&lt;tr&gt;&lt;td&gt;&lt;br&gt;&lt;/td&gt;&lt;td&gt;merchant_name&lt;/td&gt;&lt;td&gt;string&lt;/td&gt;&lt;/tr&gt;&lt;tr&gt;&lt;td&gt;&lt;br&gt;&lt;/td&gt;&lt;td&gt;merchant_category&lt;/td&gt;&lt;td&gt;string&lt;/td&gt;&lt;/tr&gt;&lt;tr&gt;&lt;td&gt;&lt;br&gt;&lt;/td&gt;&lt;td&gt;merchant_email&lt;/td&gt;&lt;td&gt;string&lt;/td&gt;&lt;/tr&gt;&lt;tr&gt;&lt;td&gt;&lt;/td&gt;&lt;td&gt;merchant_phone&lt;/td&gt;&lt;td&gt;string&lt;br&gt;&lt;/td&gt;&lt;/tr&gt;&lt;tr&gt;&lt;td&gt;&lt;br&gt;&lt;/td&gt;&lt;td&gt;&lt;br&gt;&lt;/td&gt;&lt;td&gt;&lt;br&gt;&lt;/td&gt;&lt;/tr&gt;&lt;/tbody&gt;&lt;/table&gt;" style="verticalAlign=top;align=left;overflow=fill;html=1;rounded=1;shadow=0;comic=0;labelBackgroundColor=none;strokeWidth=1;fontFamily=Verdana;fontSize=12;fillColor=#5D7F99;strokeColor=#D0CEE2;fontColor=#1A1A1A;" parent="1" vertex="1">
          <mxGeometry x="760" y="110" width="190" height="190" as="geometry" />
        </mxCell>
        <mxCell id="iZUvOMByy25hBOV0dMiL-18" value="&lt;div style=&quot;box-sizing:border-box;width:100%;background:#e4e4e4;padding:2px;&quot;&gt;&lt;b&gt;Transaction&lt;/b&gt;&lt;/div&gt;&lt;table style=&quot;width:100%;font-size:1em;&quot; cellpadding=&quot;2&quot; cellspacing=&quot;0&quot;&gt;&lt;tbody&gt;&lt;tr&gt;&lt;td&gt;PK&lt;/td&gt;&lt;td&gt;transaction_id&lt;br&gt;&lt;/td&gt;&lt;td&gt;string&lt;/td&gt;&lt;/tr&gt;&lt;tr&gt;&lt;td&gt;FK&lt;/td&gt;&lt;td&gt;customer_id&lt;/td&gt;&lt;td&gt;string&lt;/td&gt;&lt;/tr&gt;&lt;tr&gt;&lt;td&gt;FK&lt;/td&gt;&lt;td&gt;product_id&lt;/td&gt;&lt;td&gt;string&lt;br&gt;&lt;/td&gt;&lt;/tr&gt;&lt;tr&gt;&lt;td&gt;FK&lt;br&gt;&lt;/td&gt;&lt;td&gt;merchant_id&lt;/td&gt;&lt;td&gt;string&lt;br&gt;&lt;/td&gt;&lt;/tr&gt;&lt;tr&gt;&lt;td&gt;FK&lt;/td&gt;&lt;td&gt;currency_code&lt;/td&gt;&lt;td&gt;string&lt;br&gt;&lt;/td&gt;&lt;/tr&gt;&lt;tr&gt;&lt;td&gt;FK&lt;/td&gt;&lt;td&gt;country_code&lt;/td&gt;&lt;td&gt;string&lt;br&gt;&lt;/td&gt;&lt;/tr&gt;&lt;tr&gt;&lt;td&gt;FK&lt;/td&gt;&lt;td&gt;log_id&lt;/td&gt;&lt;td&gt;string&lt;br&gt;&lt;/td&gt;&lt;/tr&gt;&lt;tr&gt;&lt;td&gt;FK&lt;/td&gt;&lt;td&gt;model_id&lt;/td&gt;&lt;td&gt;string&lt;br&gt;&lt;/td&gt;&lt;/tr&gt;&lt;tr&gt;&lt;td&gt;FK&lt;/td&gt;&lt;td&gt;user_id&lt;/td&gt;&lt;td&gt;string&lt;/td&gt;&lt;/tr&gt;&lt;tr&gt;&lt;td&gt;&lt;br&gt;&lt;/td&gt;&lt;td&gt;transaction_count&lt;/td&gt;&lt;td&gt;integer&lt;/td&gt;&lt;/tr&gt;&lt;tr&gt;&lt;td&gt;&lt;br&gt;&lt;/td&gt;&lt;td&gt;date&lt;/td&gt;&lt;td&gt;ISOdate&lt;/td&gt;&lt;/tr&gt;&lt;tr&gt;&lt;td&gt;&lt;br&gt;&lt;/td&gt;&lt;td&gt;amount&lt;/td&gt;&lt;td&gt;decimal&lt;/td&gt;&lt;/tr&gt;&lt;tr&gt;&lt;td&gt;&lt;br&gt;&lt;/td&gt;&lt;td&gt;is_fraud&lt;/td&gt;&lt;td&gt;boolean&lt;/td&gt;&lt;/tr&gt;&lt;/tbody&gt;&lt;/table&gt;" style="verticalAlign=top;align=left;overflow=fill;html=1;rounded=1;shadow=0;comic=0;labelBackgroundColor=none;strokeWidth=1;fontFamily=Verdana;fontSize=12;fillColor=#5D7F99;strokeColor=#D0CEE2;fontColor=#1A1A1A;" parent="1" vertex="1">
          <mxGeometry x="770" y="380" width="230" height="260" as="geometry" />
        </mxCell>
        <mxCell id="ibxi2bQA84ckX80V5osr-18" value="" style="edgeStyle=orthogonalEdgeStyle;rounded=0;orthogonalLoop=1;jettySize=auto;html=1;exitX=0.5;exitY=0;exitDx=0;exitDy=0;entryX=0.5;entryY=1;entryDx=0;entryDy=0;" parent="1" source="iZUvOMByy25hBOV0dMiL-15" target="ibxi2bQA84ckX80V5osr-1" edge="1">
          <mxGeometry relative="1" as="geometry">
            <mxPoint x="500" y="320" as="targetPoint" />
            <Array as="points">
              <mxPoint x="505" y="350" />
              <mxPoint x="505" y="350" />
            </Array>
          </mxGeometry>
        </mxCell>
        <mxCell id="ibxi2bQA84ckX80V5osr-1" value="&lt;div style=&quot;box-sizing:border-box;width:100%;background:#e4e4e4;padding:2px;&quot;&gt;&lt;b&gt;Country_region_code&lt;/b&gt;&lt;/div&gt;&lt;table style=&quot;width:100%;font-size:1em;&quot; cellpadding=&quot;2&quot; cellspacing=&quot;0&quot;&gt;&lt;tbody&gt;&lt;tr&gt;&lt;td&gt;PK&lt;/td&gt;&lt;td&gt;country_code&lt;br&gt;&lt;/td&gt;&lt;td&gt;string&lt;br&gt;&lt;/td&gt;&lt;/tr&gt;&lt;tr&gt;&lt;td&gt;FK&lt;/td&gt;&lt;td&gt;merchant_id&lt;/td&gt;&lt;td&gt;string&lt;br&gt;&lt;/td&gt;&lt;/tr&gt;&lt;tr&gt;&lt;td&gt;FK&lt;/td&gt;&lt;td&gt;transaction_id&lt;/td&gt;&lt;td&gt;string&lt;br&gt;&lt;/td&gt;&lt;/tr&gt;&lt;tr&gt;&lt;td&gt;FK&lt;/td&gt;&lt;td&gt;currency_code&lt;/td&gt;&lt;td&gt;string&lt;/td&gt;&lt;/tr&gt;&lt;tr&gt;&lt;td&gt;&lt;br&gt;&lt;/td&gt;&lt;td&gt;country_name&lt;/td&gt;&lt;td&gt;string&lt;/td&gt;&lt;/tr&gt;&lt;tr&gt;&lt;td&gt;&lt;br&gt;&lt;/td&gt;&lt;td&gt;area&lt;/td&gt;&lt;td&gt;string&lt;/td&gt;&lt;/tr&gt;&lt;/tbody&gt;&lt;/table&gt;" style="verticalAlign=top;align=left;overflow=fill;html=1;rounded=1;shadow=0;comic=0;labelBackgroundColor=none;strokeWidth=1;fontFamily=Verdana;fontSize=12;fillColor=#5D7F99;strokeColor=#D0CEE2;fontColor=#1A1A1A;" parent="1" vertex="1">
          <mxGeometry x="410" y="130" width="190" height="150" as="geometry" />
        </mxCell>
        <mxCell id="ibxi2bQA84ckX80V5osr-2" value="" style="endArrow=classic;html=1;rounded=0;exitX=1.005;exitY=0.586;exitDx=0;exitDy=0;exitPerimeter=0;entryX=-0.014;entryY=0.543;entryDx=0;entryDy=0;entryPerimeter=0;" parent="1" source="iZUvOMByy25hBOV0dMiL-15" target="iZUvOMByy25hBOV0dMiL-18" edge="1">
          <mxGeometry width="50" height="50" relative="1" as="geometry">
            <mxPoint x="825" y="350" as="sourcePoint" />
            <mxPoint x="760" y="530" as="targetPoint" />
          </mxGeometry>
        </mxCell>
        <mxCell id="ibxi2bQA84ckX80V5osr-9" value="" style="endArrow=classic;html=1;rounded=0;exitX=1;exitY=0.5;exitDx=0;exitDy=0;entryX=0;entryY=0.5;entryDx=0;entryDy=0;" parent="1" source="ibxi2bQA84ckX80V5osr-1" target="iZUvOMByy25hBOV0dMiL-17" edge="1">
          <mxGeometry width="50" height="50" relative="1" as="geometry">
            <mxPoint x="320" y="360" as="sourcePoint" />
            <mxPoint x="700" y="220" as="targetPoint" />
          </mxGeometry>
        </mxCell>
        <mxCell id="ibxi2bQA84ckX80V5osr-29" value="" style="endArrow=classic;html=1;rounded=0;exitX=0.009;exitY=0.942;exitDx=0;exitDy=0;entryX=1;entryY=0;entryDx=0;entryDy=0;exitPerimeter=0;" parent="1" source="iZUvOMByy25hBOV0dMiL-18" target="iZUvOMByy25hBOV0dMiL-14" edge="1">
          <mxGeometry width="50" height="50" relative="1" as="geometry">
            <mxPoint x="730" y="560" as="sourcePoint" />
            <mxPoint x="680" y="710" as="targetPoint" />
          </mxGeometry>
        </mxCell>
        <mxCell id="ibxi2bQA84ckX80V5osr-36" value="" style="endArrow=classic;html=1;rounded=0;exitX=1;exitY=0.5;exitDx=0;exitDy=0;entryX=0.026;entryY=0.357;entryDx=0;entryDy=0;entryPerimeter=0;" parent="1" source="iZUvOMByy25hBOV0dMiL-18" target="iZUvOMByy25hBOV0dMiL-12" edge="1">
          <mxGeometry width="50" height="50" relative="1" as="geometry">
            <mxPoint x="730" y="560" as="sourcePoint" />
            <mxPoint x="1150" y="510" as="targetPoint" />
          </mxGeometry>
        </mxCell>
        <mxCell id="ibxi2bQA84ckX80V5osr-41" value="" style="endArrow=classic;html=1;rounded=0;exitX=1;exitY=0.5;exitDx=0;exitDy=0;entryX=-0.005;entryY=0.4;entryDx=0;entryDy=0;entryPerimeter=0;" parent="1" source="iZUvOMByy25hBOV0dMiL-17" target="iZUvOMByy25hBOV0dMiL-13" edge="1">
          <mxGeometry width="50" height="50" relative="1" as="geometry">
            <mxPoint x="950" y="240" as="sourcePoint" />
            <mxPoint x="1170" y="230" as="targetPoint" />
          </mxGeometry>
        </mxCell>
        <mxCell id="ibxi2bQA84ckX80V5osr-42" value="" style="endArrow=classic;html=1;rounded=0;entryX=0.047;entryY=0.971;entryDx=0;entryDy=0;entryPerimeter=0;" parent="1" target="iZUvOMByy25hBOV0dMiL-13" edge="1">
          <mxGeometry width="50" height="50" relative="1" as="geometry">
            <mxPoint x="1000" y="380" as="sourcePoint" />
            <mxPoint x="1150" y="390" as="targetPoint" />
          </mxGeometry>
        </mxCell>
        <mxCell id="ibxi2bQA84ckX80V5osr-43" value="" style="endArrow=classic;html=1;rounded=0;entryX=0.5;entryY=1;entryDx=0;entryDy=0;" parent="1" target="iZUvOMByy25hBOV0dMiL-17" edge="1">
          <mxGeometry width="50" height="50" relative="1" as="geometry">
            <mxPoint x="855" y="370" as="sourcePoint" />
            <mxPoint x="670" y="350" as="targetPoint" />
          </mxGeometry>
        </mxCell>
        <mxCell id="ibxi2bQA84ckX80V5osr-44" value="" style="endArrow=classic;html=1;rounded=0;entryX=0.395;entryY=1.012;entryDx=0;entryDy=0;entryPerimeter=0;exitX=0.54;exitY=0.02;exitDx=0;exitDy=0;exitPerimeter=0;" parent="1" source="iZUvOMByy25hBOV0dMiL-11" target="iZUvOMByy25hBOV0dMiL-18" edge="1">
          <mxGeometry width="50" height="50" relative="1" as="geometry">
            <mxPoint x="870" y="770" as="sourcePoint" />
            <mxPoint x="750" y="715" as="targetPoint" />
            <Array as="points">
              <mxPoint x="862" y="680" />
            </Array>
          </mxGeometry>
        </mxCell>
        <mxCell id="ibxi2bQA84ckX80V5osr-45" value="" style="endArrow=classic;html=1;rounded=0;exitX=0.945;exitY=0.959;exitDx=0;exitDy=0;entryX=0;entryY=0;entryDx=0;entryDy=0;exitPerimeter=0;" parent="1" source="iZUvOMByy25hBOV0dMiL-18" target="iZUvOMByy25hBOV0dMiL-16" edge="1">
          <mxGeometry width="50" height="50" relative="1" as="geometry">
            <mxPoint x="992" y="622" as="sourcePoint" />
            <mxPoint x="990" y="710" as="targetPoint" />
          </mxGeometry>
        </mxCell>
        <mxCell id="ibxi2bQA84ckX80V5osr-46" value="" style="endArrow=classic;html=1;rounded=0;exitX=0.975;exitY=0.945;exitDx=0;exitDy=0;exitPerimeter=0;entryX=0;entryY=0;entryDx=0;entryDy=0;" parent="1" target="iZUvOMByy25hBOV0dMiL-18" edge="1" source="ibxi2bQA84ckX80V5osr-1">
          <mxGeometry width="50" height="50" relative="1" as="geometry">
            <mxPoint x="771" y="380" as="sourcePoint" />
            <mxPoint x="720" y="380" as="targetPoint" />
          </mxGeometry>
        </mxCell>
        <mxCell id="ibxi2bQA84ckX80V5osr-47" value="" style="endArrow=classic;html=1;rounded=0;entryX=0;entryY=0;entryDx=0;entryDy=0;" parent="1" target="iZUvOMByy25hBOV0dMiL-12" edge="1">
          <mxGeometry width="50" height="50" relative="1" as="geometry">
            <mxPoint x="940" y="280" as="sourcePoint" />
            <mxPoint x="780" y="510" as="targetPoint" />
          </mxGeometry>
        </mxCell>
        <mxCell id="ibxi2bQA84ckX80V5osr-48" value="" style="endArrow=classic;html=1;rounded=0;entryX=0.5;entryY=1;entryDx=0;entryDy=0;" parent="1" target="iZUvOMByy25hBOV0dMiL-12" edge="1">
          <mxGeometry width="50" height="50" relative="1" as="geometry">
            <mxPoint x="1280" y="750" as="sourcePoint" />
            <mxPoint x="1280" y="600" as="targetPoint" />
          </mxGeometry>
        </mxCell>
        <mxCell id="ibxi2bQA84ckX80V5osr-49" value="" style="endArrow=classic;html=1;rounded=0;exitX=0;exitY=0.5;exitDx=0;exitDy=0;entryX=1;entryY=0.5;entryDx=0;entryDy=0;" parent="1" source="iZUvOMByy25hBOV0dMiL-16" target="iZUvOMByy25hBOV0dMiL-11" edge="1">
          <mxGeometry width="50" height="50" relative="1" as="geometry">
            <mxPoint x="730" y="560" as="sourcePoint" />
            <mxPoint x="1020" y="880" as="targetPoint" />
          </mxGeometry>
        </mxCell>
        <mxCell id="XM3aABySBXnHT1lDljwX-1" value="DONE BY" style="text;html=1;align=center;verticalAlign=middle;whiteSpace=wrap;rounded=0;rotation=-89;" vertex="1" parent="1">
          <mxGeometry x="810" y="320" width="60" height="30" as="geometry" />
        </mxCell>
        <mxCell id="XM3aABySBXnHT1lDljwX-5" value="EVALUATE" style="text;html=1;align=center;verticalAlign=middle;whiteSpace=wrap;rounded=0;rotation=-89;" vertex="1" parent="1">
          <mxGeometry x="820" y="705" width="60" height="30" as="geometry" />
        </mxCell>
        <mxCell id="XM3aABySBXnHT1lDljwX-6" value="INITIATE BY" style="text;html=1;align=center;verticalAlign=middle;whiteSpace=wrap;rounded=0;rotation=30;" vertex="1" parent="1">
          <mxGeometry x="1070" y="675" width="80" height="30" as="geometry" />
        </mxCell>
        <mxCell id="XM3aABySBXnHT1lDljwX-7" value="CONVERT" style="text;html=1;align=center;verticalAlign=middle;whiteSpace=wrap;rounded=0;rotation=0;" vertex="1" parent="1">
          <mxGeometry x="670" y="480" width="60" height="30" as="geometry" />
        </mxCell>
        <mxCell id="XM3aABySBXnHT1lDljwX-8" value="LOCATE" style="text;html=1;align=center;verticalAlign=middle;whiteSpace=wrap;rounded=0;rotation=30;" vertex="1" parent="1">
          <mxGeometry x="660" y="300" width="60" height="30" as="geometry" />
        </mxCell>
        <mxCell id="XM3aABySBXnHT1lDljwX-9" value="EVALUATE" style="text;html=1;align=center;verticalAlign=middle;whiteSpace=wrap;rounded=0;rotation=0;" vertex="1" parent="1">
          <mxGeometry x="670" y="816.88" width="60" height="30" as="geometry" />
        </mxCell>
        <mxCell id="XM3aABySBXnHT1lDljwX-11" value="LOCATE" style="text;html=1;align=center;verticalAlign=middle;whiteSpace=wrap;rounded=0;rotation=0;" vertex="1" parent="1">
          <mxGeometry x="650" y="170" width="60" height="30" as="geometry" />
        </mxCell>
        <mxCell id="XM3aABySBXnHT1lDljwX-12" value="EVALUATE" style="text;html=1;align=center;verticalAlign=middle;whiteSpace=wrap;rounded=0;rotation=0;" vertex="1" parent="1">
          <mxGeometry x="1040" y="810" width="60" height="30" as="geometry" />
        </mxCell>
        <mxCell id="XM3aABySBXnHT1lDljwX-13" value="FEED" style="text;html=1;align=center;verticalAlign=middle;whiteSpace=wrap;rounded=0;rotation=0;" vertex="1" parent="1">
          <mxGeometry x="1020" y="170" width="60" height="30" as="geometry" />
        </mxCell>
        <mxCell id="XM3aABySBXnHT1lDljwX-14" value="FEED" style="text;html=1;align=center;verticalAlign=middle;whiteSpace=wrap;rounded=0;rotation=-20;" vertex="1" parent="1">
          <mxGeometry x="1070" y="310" width="60" height="30" as="geometry" />
        </mxCell>
        <mxCell id="XM3aABySBXnHT1lDljwX-15" value="FEED" style="text;html=1;align=center;verticalAlign=middle;whiteSpace=wrap;rounded=0;rotation=-90;" vertex="1" parent="1">
          <mxGeometry x="1220" y="370" width="60" height="30" as="geometry" />
        </mxCell>
        <mxCell id="XM3aABySBXnHT1lDljwX-16" value="FEED" style="text;html=1;align=center;verticalAlign=middle;whiteSpace=wrap;rounded=0;rotation=-90;" vertex="1" parent="1">
          <mxGeometry x="1440" y="495" width="60" height="30" as="geometry" />
        </mxCell>
        <mxCell id="XM3aABySBXnHT1lDljwX-17" value="CONVERT" style="text;html=1;align=center;verticalAlign=middle;whiteSpace=wrap;rounded=0;rotation=90;" vertex="1" parent="1">
          <mxGeometry x="490" y="640" width="60" height="30" as="geometry" />
        </mxCell>
        <mxCell id="XM3aABySBXnHT1lDljwX-18" value="CONVERT" style="text;html=1;align=center;verticalAlign=middle;whiteSpace=wrap;rounded=0;rotation=-90;" vertex="1" parent="1">
          <mxGeometry x="490" y="350" width="60" height="30" as="geometry" />
        </mxCell>
        <mxCell id="XM3aABySBXnHT1lDljwX-19" value="REPORT" style="text;html=1;align=center;verticalAlign=middle;whiteSpace=wrap;rounded=0;rotation=0;" vertex="1" parent="1">
          <mxGeometry x="1040" y="480" width="60" height="30" as="geometry" />
        </mxCell>
        <mxCell id="XM3aABySBXnHT1lDljwX-20" value="REPORT" style="text;html=1;align=center;verticalAlign=middle;whiteSpace=wrap;rounded=0;rotation=-90;" vertex="1" parent="1">
          <mxGeometry x="1230" y="690" width="60" height="30" as="geometry" />
        </mxCell>
        <mxCell id="XM3aABySBXnHT1lDljwX-21" value="REPORT" style="text;html=1;align=center;verticalAlign=middle;whiteSpace=wrap;rounded=0;rotation=30;" vertex="1" parent="1">
          <mxGeometry x="1100" y="380" width="60" height="30" as="geometry" />
        </mxCell>
      </root>
    </mxGraphModel>
  </diagram>
</mxfile>
